<svg xmlns="http://www.w3.org/2000/svg" xmlns:xlink="http://www.w3.org/1999/xlink" viewBox="0,0,256,256" width="48px" height="48px" fill-rule="nonzero"><defs><linearGradient x1="9.858" y1="9.858" x2="38.142" y2="38.142" gradientUnits="userSpaceOnUse" id="color-1"><stop offset="0" stop-color="#9de2ff"></stop><stop offset="1" stop-color="#509fd1"></stop></linearGradient><linearGradient x1="22" y1="24" x2="26" y2="24" gradientUnits="userSpaceOnUse" id="color-2"><stop offset="0.824" stop-color="#134e5d"></stop><stop offset="0.931" stop-color="#123359"></stop><stop offset="1" stop-color="#112b52"></stop></linearGradient><linearGradient x1="13" y1="24" x2="35" y2="24" gradientUnits="userSpaceOnUse" id="color-3"><stop offset="0.824" stop-color="#134e5d"></stop><stop offset="0.931" stop-color="#123359"></stop><stop offset="1" stop-color="#112b52"></stop></linearGradient></defs><g fill="none" fill-rule="nonzero" stroke="none" stroke-width="1" stroke-linecap="butt" stroke-linejoin="miter" stroke-miterlimit="10" stroke-dasharray="" stroke-dashoffset="0" font-family="none" font-weight="none" font-size="none" text-anchor="none" style="mix-blend-mode: normal"><g transform="scale(5.33333,5.33333)"><path d="M44,24c0,11.045 -8.955,20 -20,20c-11.045,0 -20,-8.955 -20,-20c0,-11.045 8.955,-20 20,-20c11.045,0 20,8.955 20,20z" fill="url(#color-1)"></path><path d="M34,21h-7v-7c0,-1.105 -0.895,-2 -2,-2h-2c-1.105,0 -2,0.895 -2,2v7h-7c-1.105,0 -2,0.895 -2,2v2c0,1.105 0.895,2 2,2h7v7c0,1.105 0.895,2 2,2h2c1.105,0 2,-0.895 2,-2v-7h7c1.105,0 2,-0.895 2,-2v-2c0,-1.105 -0.895,-2 -2,-2z" fill="#000000" opacity="0.05"></path><path d="M34,21.5h-7.5v-7.5c0,-0.828 -0.672,-1.5 -1.5,-1.5h-2c-0.828,0 -1.5,0.672 -1.5,1.5v7.5h-7.5c-0.828,0 -1.5,0.672 -1.5,1.5v2c0,0.828 0.672,1.5 1.5,1.5h7.5v7.5c0,0.828 0.672,1.5 1.5,1.5h2c0.828,0 1.5,-0.672 1.5,-1.5v-7.5h7.5c0.828,0 1.5,-0.672 1.5,-1.5v-2c0,-0.828 -0.672,-1.5 -1.5,-1.5z" fill="#000000" opacity="0.07"></path><path d="M23,13h2c0.552,0 1,0.448 1,1v20c0,0.552 -0.448,1 -1,1h-2c-0.552,0 -1,-0.448 -1,-1v-20c0,-0.552 0.448,-1 1,-1z" fill="url(#color-2)"></path><path d="M35,23v2c0,0.552 -0.448,1 -1,1h-20c-0.552,0 -1,-0.448 -1,-1v-2c0,-0.552 0.448,-1 1,-1h20c0.552,0 1,0.448 1,1z" fill="url(#color-3)"></path></g></g></svg>